<svg width="145" height="52" viewBox="0 0 145 52" fill="none" xmlns="http://www.w3.org/2000/svg">
<g clip-path="url(#clip0_40_271)">
<path d="M29.7941 34.7943H11.6088C9.61658 34.7943 8.00146 36.4073 8.00146 38.3971C8.00146 40.3868 9.61658 41.9999 11.6088 41.9999H29.7941C31.7864 41.9999 33.4015 40.3868 33.4015 38.3971C33.4015 36.4073 31.7864 34.7943 29.7941 34.7943Z" fill="white"/>
<path d="M22.5794 22.3971H11.6088C9.61654 22.3971 8.00146 24.0101 8.00146 25.9999C8.00146 27.9897 9.61654 29.6027 11.6088 29.6027H22.5794C24.5717 29.6027 26.1867 27.9897 26.1867 25.9999C26.1867 24.0101 24.5717 22.3971 22.5794 22.3971Z" fill="white"/>
<path d="M29.7941 9.99989H11.6088C9.61658 9.99989 8.00146 11.613 8.00146 13.6027C8.00146 15.5925 9.61658 17.2056 11.6088 17.2056H29.7941C31.7864 17.2056 33.4015 15.5925 33.4015 13.6027C33.4015 11.613 31.7864 9.99989 29.7941 9.99989Z" fill="white"/>
<path d="M41.3007 9.99989C39.3085 9.99989 37.6934 11.613 37.6934 13.6027V38.3971C37.6934 40.3868 39.3085 41.9999 41.3007 41.9999C43.293 41.9999 44.9081 40.3868 44.9081 38.3971V13.6027C44.9081 11.613 43.293 9.99989 41.3007 9.99989Z" fill="white"/>
<path d="M53.7138 9.99989C51.7216 9.99989 50.1064 11.613 50.1064 13.6027V31.1914C50.1064 33.1811 51.7216 34.7942 53.7138 34.7942C55.7061 34.7942 57.3212 33.1811 57.3212 31.1914V13.6027C57.3212 11.613 55.7061 9.99989 53.7138 9.99989Z" fill="white"/>
<path d="M66.1259 9.99989C64.1337 9.99989 62.5186 11.613 62.5186 13.6027V38.3971C62.5186 40.3868 64.1337 41.9999 66.1259 41.9999C68.1182 41.9999 69.7333 40.3868 69.7333 38.3971V13.6027C69.7333 11.613 68.1182 9.99989 66.1259 9.99989Z" fill="white"/>
<path d="M97.3481 25.886L108.863 40.644C109.38 41.349 109.192 42.007 108.299 42.007H99.6511C98.8991 42.007 98.5701 41.725 98.1941 41.208L92.1311 32.278L85.9741 41.208C85.6451 41.725 85.3161 42.007 84.5641 42.007H75.8691C74.9761 42.007 74.7411 41.302 75.3051 40.644L87.0551 26.074L75.6341 11.363C75.1171 10.705 75.3051 10 76.1981 10H84.8931C85.6451 10 85.9741 10.329 86.3031 10.846L92.1781 19.353L97.7711 10.846C98.1471 10.329 98.4761 10 99.2281 10H108.017C108.91 10 109.098 10.705 108.581 11.363L97.3481 25.886Z" fill="#A053FF"/>
<path d="M135.678 28.612C135.02 29.176 134.362 29.646 133.704 30.022L139.814 40.55C140.19 41.208 140.284 42.007 139.344 42.007H132.106C131.354 42.007 130.884 41.866 130.508 41.161L125.479 31.573H120.45V41.161C120.45 41.631 120.074 42.007 119.604 42.007H113.024C112.554 42.007 112.178 41.631 112.178 41.161V10.846C112.178 10.376 112.554 10 113.024 10H127.265C130.414 10 133.375 10.658 135.49 12.303C137.887 14.183 139.203 17.332 139.203 20.716C139.203 23.536 138.216 26.356 135.678 28.612ZM126.701 17.003H120.45V24.617H125.996C127.453 24.617 128.581 24.429 129.333 23.912C130.226 23.348 130.79 22.267 130.79 20.81C130.79 19.4 130.32 18.413 129.474 17.802C128.722 17.238 127.688 17.003 126.701 17.003Z" fill="#A053FF"/>
</g>
<defs>
<clipPath id="clip0_40_271">
<rect width="145" height="52" fill="white"/>
</clipPath>
</defs>
</svg>
